<?xml version="1.0" standalone="no"?>
<!DOCTYPE svg PUBLIC "-//W3C//DTD SVG 20010904//EN"
 "http://www.w3.org/TR/2001/REC-SVG-20010904/DTD/svg10.dtd">
<svg version="1.0" xmlns="http://www.w3.org/2000/svg"
 width="331.000000pt" height="331.000000pt" viewBox="0 0 331.000000 331.000000"
 preserveAspectRatio="xMidYMid meet">
<metadata>
Created by potrace 1.11, written by Peter Selinger 2001-2013
</metadata>
<g transform="translate(0.000000,331.000000) scale(0.100000,-0.100000)"
fill="#000000" stroke="none">
<path d="M2115 3228 c-3 -7 -16 -92 -30 -188 -14 -96 -27 -182 -30 -190 -2 -8
-7 -34 -10 -57 -11 -90 -126 -571 -155 -647 -9 -24 -12 -24 -82 -20 -40 3 -81
7 -91 9 -37 7 -214 -16 -305 -40 -115 -31 -260 -97 -351 -162 -63 -45 -191
-160 -191 -172 0 -4 53 -19 117 -35 202 -48 605 -188 671 -231 10 -7 -212
-462 -314 -642 -35 -62 -64 -116 -64 -120 0 -8 81 -56 85 -51 35 42 222 421
311 629 31 74 58 137 60 141 10 17 368 -191 466 -271 133 -107 192 -170 253
-267 171 -269 128 -555 -108 -713 -186 -126 -453 -157 -739 -86 -302 75 -586
276 -757 536 -83 127 -85 129 -50 64 64 -122 183 -265 298 -359 161 -131 311
-210 493 -261 124 -35 162 -40 333 -39 124 0 164 4 230 23 281 79 447 266 447
506 0 180 -67 338 -209 496 l-49 54 -23 150 c-13 83 -25 159 -27 170 -11 84
-16 119 -19 134 -2 10 -6 42 -10 72 -3 30 -8 65 -10 79 -2 14 -7 49 -10 79
l-7 53 46 -32 c25 -18 78 -66 117 -107 l71 -73 39 31 39 31 -31 40 c-42 53
-149 144 -232 197 -54 35 -67 49 -68 70 0 14 -2 33 -3 41 -2 8 -6 49 -10 90
-4 41 -9 91 -11 110 -8 75 -17 171 -40 470 -8 98 -28 436 -28 473 -1 29 -5 35
-12 15z m-1 -513 c4 -44 9 -96 11 -115 4 -34 8 -74 20 -195 4 -33 8 -71 10
-85 2 -14 7 -52 11 -85 3 -33 8 -67 9 -75 2 -8 6 -45 10 -82 l7 -66 -48 23
c-27 13 -79 34 -116 47 -38 12 -68 28 -68 34 0 6 16 73 35 150 18 76 36 150
39 164 2 14 16 81 30 150 14 69 28 147 32 173 3 26 8 47 9 45 2 -2 6 -39 9
-83z m-300 -679 c16 -3 31 -7 33 -10 9 -8 -144 -447 -162 -464 -2 -2 -46 14
-97 36 -120 53 -337 132 -458 167 -52 15 -99 30 -103 32 -11 7 103 90 179 130
63 34 223 91 277 99 18 3 55 7 82 10 28 3 51 7 52 8 5 4 168 -2 197 -8z m161
-37 c22 -6 84 -31 137 -56 96 -45 97 -46 104 -87 3 -22 8 -48 9 -56 2 -8 6
-37 9 -65 7 -52 72 -441 81 -485 3 -14 8 -43 12 -65 6 -38 5 -39 -13 -25 -10
8 -21 18 -24 21 -3 3 -43 35 -90 70 -89 68 -233 158 -362 228 l-77 42 26 67
c37 98 133 391 133 408 0 17 4 17 55 3z"/>
<path d="M740 835 c0 -5 5 -17 10 -25 5 -8 10 -10 10 -5 0 6 -5 17 -10 25 -5
8 -10 11 -10 5z"/>
</g>
</svg>
